<svg width="26" height="23" viewBox="0 0 26 23" fill="none" xmlns="http://www.w3.org/2000/svg">
<path d="M21.8177 22.0263C24.0469 19.825 25.5 16.7626 25.5 13.3176C25.5 6.52435 19.8802 0.973684 13 0.973684C6.11979 0.973684 0.5 6.52435 0.5 13.3176C0.5 16.7637 1.85625 19.825 4.18229 22.0263L5.92604 20.3033C4.08542 18.4857 3.01979 16.093 3.01979 13.3187C3.01773 12.0238 3.27446 10.7412 3.77526 9.54438C4.27606 8.34761 5.01108 7.26019 5.93821 6.34444C6.86534 5.42869 7.96635 4.70262 9.17815 4.20782C10.3899 3.71302 11.6887 3.45923 13 3.46099C14.3111 3.45923 15.6097 3.71295 16.8214 4.20762C18.033 4.70229 19.1339 5.42818 20.061 6.34371C20.9882 7.25924 21.7232 8.34642 22.2241 9.54295C22.7251 10.7395 22.982 12.0219 22.9802 13.3166C22.9802 15.9963 21.8177 18.4846 20.074 20.3023L21.8177 22.0263Z" fill="white"/>
<path d="M13.3821 16.1201L15.5491 13.8546L8.35996 7.55263L7.07902 8.93096L13.3821 16.1201Z" fill="white"/>
</svg>
