<svg width="83" height="74" viewBox="0 0 83 74" fill="none" xmlns="http://www.w3.org/2000/svg">
<rect x="1.0851" y="43.0666" width="75.1905" height="29.8551" fill="white" stroke="black" stroke-width="0.2"/>
<rect x="3.29659" y="39.7493" width="75.1905" height="29.8551" fill="#E84241" stroke="black" stroke-width="0.2"/>
<rect x="6.61382" y="36.4321" width="75.1905" height="29.8551" fill="white" stroke="black" stroke-width="0.2"/>
<path d="M62.0115 50.475C62.0115 52.6865 63.7807 54.4557 65.9922 54.4557C68.2037 54.4557 69.9729 52.6865 69.9729 50.475C69.9729 48.2636 68.2037 46.4944 65.9922 46.4944C63.7807 46.4944 62.0115 48.2636 62.0115 50.475ZM78.4871 62.4171H44.6513V60.3162C48.7426 60.3162 52.1704 56.1143 52.1704 50.9173C52.1704 45.7203 48.8532 41.5185 44.6513 41.5185V39.7493H78.4871V62.4171Z" fill="white" stroke="black" stroke-width="0.2"/>
<path d="M30.1662 55.3403H16.8972C16.6761 55.3403 16.4549 55.5614 16.4549 55.672C16.4549 55.7826 16.6761 56.0037 16.8972 56.0037H30.1662C30.3873 56.0037 30.4979 55.7826 30.4979 55.672C30.4979 55.5614 30.3873 55.3403 30.1662 55.3403ZM16.8972 52.7971H30.1662C30.3873 52.7971 30.4979 52.5759 30.4979 52.4654C30.4979 52.2442 30.3873 52.0231 30.1662 52.0231H16.8972C16.6761 52.0231 16.4549 52.2442 16.4549 52.4654C16.5655 52.6865 16.6761 52.7971 16.8972 52.7971ZM16.8972 49.5904H30.1662C30.3873 49.5904 30.4979 49.3693 30.4979 49.1481C30.4979 48.927 30.3873 48.8164 30.1662 48.8164H16.8972C16.6761 48.8164 16.4549 49.0375 16.4549 49.1481C16.5655 49.3693 16.6761 49.5904 16.8972 49.5904ZM16.8972 46.2732H30.1662C30.3873 46.2732 30.4979 46.1626 30.4979 45.9415C30.4979 45.7203 30.3873 45.4992 30.1662 45.4992H16.8972C16.6761 45.4992 16.4549 45.7203 16.4549 45.9415C16.5655 46.1626 16.6761 46.2732 16.8972 46.2732ZM44.6514 62.417H10.7051V39.6387H44.5408V41.4079C40.4496 41.4079 37.0218 45.6097 37.0218 50.8067C37.0218 56.0037 40.339 60.2056 44.5408 60.2056V62.417H44.6514Z" fill="white" stroke="black" stroke-width="0.2"/>
<path d="M65.9919 54.4551C68.2032 54.4551 69.9723 52.686 69.9723 50.4747C69.9723 48.2634 68.2032 46.4943 65.9919 46.4943C63.7806 46.4943 62.0115 48.2634 62.0115 50.4747C62.0115 52.686 63.7806 54.4551 65.9919 54.4551ZM65.9919 47.2683C67.761 47.2683 69.1983 48.7057 69.1983 50.4747C69.1983 52.2438 67.761 53.6811 65.9919 53.6811C64.2229 53.6811 62.7855 52.2438 62.7855 50.4747C62.7855 48.7057 64.2229 47.2683 65.9919 47.2683Z" fill="black" stroke="black" stroke-width="0.2"/>
<path d="M52.0599 50.8068C52.0599 45.6098 48.7426 41.408 44.5408 41.408C40.339 41.408 37.0218 45.6098 37.0218 50.8068C37.0218 56.0038 40.339 60.2056 44.5408 60.2056C48.7426 60.2056 52.0599 56.0038 52.0599 50.8068ZM37.9064 50.8068C37.9064 46.0521 40.8919 42.182 44.5408 42.182C48.1898 42.182 51.1753 46.0521 51.1753 50.8068C51.1753 55.5615 48.1898 59.4316 44.5408 59.4316C41.0024 59.4316 37.9064 55.5615 37.9064 50.8068Z" fill="black" stroke="black" stroke-width="0.2"/>
<path d="M44.6514 17.5862C41.0024 17.5862 37.3535 18.5814 34.1468 20.5717C33.9257 20.6823 33.9257 20.9034 34.0363 21.1246C34.1468 21.2351 34.2574 21.3457 34.368 21.3457C34.4786 21.3457 34.4786 21.3457 34.5891 21.3457C37.6852 19.4659 41.2236 18.4708 44.762 18.4708C48.3003 18.4708 51.8387 19.4659 54.9348 21.3457C55.156 21.4563 55.3771 21.3457 55.4877 21.2351C55.5982 21.014 55.4877 20.7928 55.3771 20.6823C51.9493 18.5813 48.3003 17.5862 44.6514 17.5862Z" fill="black" stroke="black" stroke-width="0.8"/>
<path d="M57.478 16.4803C57.5886 16.4803 57.6992 16.3698 57.8097 16.2592C57.9203 16.038 57.8097 15.8169 57.6992 15.7063C53.7185 13.2737 49.2955 12.0574 44.6514 12.0574C40.1178 12.0574 35.5843 13.2737 31.6036 15.7063C31.3825 15.8169 31.3825 16.038 31.493 16.2592C31.6036 16.4803 31.8248 16.4803 32.0459 16.3698C35.916 14.0477 40.2284 12.8314 44.6514 12.8314C49.0744 12.8314 53.3868 14.0477 57.2569 16.3698C57.2569 16.3698 57.3674 16.4803 57.478 16.4803Z" fill="black" stroke="black" stroke-width="0.8"/>
<path d="M30.1651 45.4991H16.8972C16.676 45.4991 16.4549 45.7203 16.4549 45.9414C16.4549 46.1625 16.676 46.2731 16.8972 46.2731H30.1651C30.3863 46.2731 30.4968 46.1625 30.4968 45.9414C30.6074 45.7203 30.3863 45.4991 30.1651 45.4991Z" fill="black" stroke="black" stroke-width="0.2"/>
<path d="M30.1651 48.8164H16.8972C16.676 48.8164 16.4549 49.0375 16.4549 49.1481C16.4549 49.3692 16.676 49.5904 16.8972 49.5904H30.1651C30.3863 49.5904 30.4968 49.3692 30.4968 49.1481C30.6074 48.927 30.3863 48.8164 30.1651 48.8164Z" fill="black" stroke="black" stroke-width="0.2"/>
<path d="M30.1651 52.0231H16.8972C16.676 52.0231 16.4549 52.2442 16.4549 52.4653C16.4549 52.6865 16.676 52.797 16.8972 52.797H30.1651C30.3863 52.797 30.4968 52.5759 30.4968 52.4653C30.6074 52.2442 30.3863 52.0231 30.1651 52.0231Z" fill="black" stroke="black" stroke-width="0.2"/>
<path d="M30.1651 55.3403H16.8972C16.676 55.3403 16.4549 55.5615 16.4549 55.672C16.4549 55.7826 16.676 56.0037 16.8972 56.0037H30.1651C30.3863 56.0037 30.4968 55.7826 30.4968 55.672C30.4968 55.5615 30.3863 55.3403 30.1651 55.3403Z" fill="black" stroke="black" stroke-width="0.2"/>
<path d="M59.9106 11.6152C60.0212 11.6152 60.1318 11.5047 60.2423 11.3941C60.3529 11.1729 60.2423 10.9518 60.0212 10.8412C55.3771 8.07685 50.0695 6.52881 44.6514 6.52881C39.2332 6.52881 33.9256 8.07685 29.1709 10.8412C29.0604 10.9518 28.9498 11.1729 29.0604 11.3941C29.1709 11.6152 29.3921 11.6152 29.6132 11.5047C34.1468 8.74029 39.4544 7.30283 44.6514 7.30283C49.8483 7.30283 55.0453 8.74029 59.6895 11.5047C59.8 11.6152 59.8 11.6152 59.9106 11.6152Z" fill="black" stroke="black" stroke-width="0.8"/>
<path d="M62.3433 6.74986C62.4538 6.74986 62.5644 6.63929 62.675 6.52872C62.7855 6.30757 62.675 6.08642 62.5644 5.97584C57.0357 2.76919 50.8435 1 44.6514 1C38.4592 1 32.267 2.76919 26.7383 6.08642C26.5172 6.19699 26.5172 6.41814 26.6277 6.63929C26.7383 6.86044 26.9595 6.86044 27.1806 6.74986C32.4882 3.54321 38.5698 1.77402 44.6514 1.77402C50.7329 1.77402 56.8145 3.43263 62.1221 6.74986C62.2327 6.74986 62.2327 6.74986 62.3433 6.74986Z" fill="black" stroke="black" stroke-width="0.8"/>
<path d="M10.3733 63.1911H78.9294C79.1506 63.1911 79.3717 62.9699 79.3717 62.7488V39.1964C79.3717 38.9753 79.1506 38.7542 78.9294 38.7542H10.3733C10.1522 38.7542 9.93105 38.9753 9.93105 39.1964V62.7488C10.0416 62.9699 10.1522 63.1911 10.3733 63.1911ZM10.7051 39.6387H44.5408H78.3765V62.4171H44.6514H10.7051V39.6387Z" fill="black" stroke="black" stroke-width="0.2"/>
<path d="M82.2466 35.5475H7.0561C6.83495 35.5475 6.72438 35.7686 6.72438 35.9898V38.9753H3.84944C3.6283 38.9753 3.40715 39.1964 3.40715 39.4176V42.6242H0.642789C0.42164 42.6242 0.311066 42.8454 0.311066 43.0665V73.2533C0.311066 73.4745 0.532214 73.6956 0.642789 73.6956H75.8333C76.0545 73.6956 76.2756 73.4745 76.2756 73.2533V70.0467H79.04C79.2611 70.0467 79.3717 69.8255 79.3717 69.6044V66.6189H82.2466C82.4678 66.6189 82.6889 66.3977 82.6889 66.1766V35.8792C82.5784 35.6581 82.4678 35.5475 82.2466 35.5475ZM75.5016 72.7005H1.08509V43.2877H3.40715V69.4938C3.40715 69.715 3.6283 69.9361 3.84944 69.9361H75.5016V72.7005ZM78.5977 69.0515H75.8333H4.18117V42.956V39.7493H6.6138V66.066C6.6138 66.2871 6.83495 66.5083 6.94552 66.5083H78.4871V69.0515H78.5977ZM81.8043 65.7343H78.9294H7.38782V39.307V36.3215H81.8043V65.7343Z" fill="black" stroke="black" stroke-width="0.2"/>
</svg>
