<svg width="73" height="93" viewBox="0 0 73 93" fill="none" xmlns="http://www.w3.org/2000/svg">
<path d="M6.96114 46.7962L17.2286 30.9606L27.4567 46.7962H20.6248V89.5644H13.793V46.7962H6.96114Z" fill="white"/>
<path fill-rule="evenodd" clip-rule="evenodd" d="M17.2299 29.5859L28.8281 47.543H21.3717V90.3112H13.0462V47.543H5.58687L17.2299 29.5859ZM8.33545 46.0494H14.5398V88.8175H19.878V46.0494H26.0853L17.2275 32.3352L8.33545 46.0494Z" fill="black"/>
<path d="M26.351 36.6472L36.579 20.772L46.8465 36.6472H39.9752V89.5644H33.1828V36.6472H26.351Z" fill="#E84241"/>
<path fill-rule="evenodd" clip-rule="evenodd" d="M36.5778 19.3949L48.2189 37.3939H40.722V90.3111H32.436V37.3939H24.9814L36.5778 19.3949ZM36.5802 22.149L27.7205 35.9003H33.9296V88.8174H39.2283V35.9003H45.4741L36.5802 22.149Z" fill="black"/>
<path d="M45.1484 23.0229L55.4159 7.18726L65.6439 23.0229H58.8121V89.5643H51.9802V23.0229H45.1484Z" fill="white"/>
<path fill-rule="evenodd" clip-rule="evenodd" d="M55.4171 5.81262L67.0153 23.7697H59.5589V90.3111H51.2334V23.7697H43.7741L55.4171 5.81262ZM46.5227 22.2761H52.7271V88.8175H58.0653V22.2761H64.2725L55.4147 8.56186L46.5227 22.2761Z" fill="black"/>
<path fill-rule="evenodd" clip-rule="evenodd" d="M3.56497 1.34625C3.97743 1.34625 4.31179 1.68062 4.31179 2.09308V88.8176H68.8821C69.2946 88.8176 69.629 89.1519 69.629 89.5644C69.629 89.9768 69.2946 90.3112 68.8821 90.3112H3.56497C3.15251 90.3112 2.81815 89.9768 2.81815 89.5644V2.09308C2.81815 1.68062 3.15251 1.34625 3.56497 1.34625Z" fill="black"/>
<path d="M3.56497 0L5.26306 3.51465L6.96115 7.06879L3.56497 4.69936L0.129303 7.06879L1.82739 3.51465L3.56497 0Z" fill="black"/>
<path d="M72.8707 89.5643L69.3165 91.2624L65.7624 93L68.1713 89.5643L65.7624 86.1682L69.3165 87.8662L72.8707 89.5643Z" fill="black"/>
</svg>
