<svg width="83" height="89" viewBox="0 0 83 89" fill="none" xmlns="http://www.w3.org/2000/svg">
<path d="M64.7097 38.0635L71.3462 30.9339C71.3462 30.9339 64.1067 23.3493 56.1012 33.3914C56.1012 33.4103 61.9337 35.5795 64.7097 38.0635Z" fill="white"/>
<path fill-rule="evenodd" clip-rule="evenodd" d="M71.8641 30.4384C71.8645 30.4388 71.8648 30.4391 71.3463 30.934L71.8648 30.4391L72.3313 30.9278L64.7556 39.0663L64.2318 38.5977C62.9263 37.4295 60.8554 36.3025 59.0576 35.4508C58.1686 35.0297 57.3641 34.6839 56.7813 34.4422C56.4901 34.3214 56.2545 34.2266 56.091 34.1612C56.0659 34.1511 56.0422 34.1417 56.02 34.1328C55.971 34.1132 55.9298 34.0967 55.8989 34.0843C55.877 34.0754 55.855 34.0664 55.8372 34.0589C55.8297 34.0557 55.8143 34.0491 55.7975 34.0411C55.7913 34.0381 55.7692 34.0276 55.7432 34.0125C55.7331 34.0067 55.6985 33.9866 55.6584 33.9551C55.6361 33.9369 55.5813 33.8849 55.5502 33.8498C55.4999 33.7815 55.4031 33.5538 55.3845 33.3914V33.1407L55.5408 32.9446C57.6021 30.359 59.6529 28.8598 61.601 28.1028C63.5543 27.3439 65.3573 27.3497 66.8852 27.6981C68.4045 28.0446 69.6432 28.7271 70.4969 29.3157C70.9253 29.6111 71.2615 29.886 71.4929 30.0894C71.6087 30.1912 71.6986 30.2754 71.761 30.3357C71.7922 30.3659 71.8166 30.3901 71.834 30.4076C71.8427 30.4163 71.8496 30.4234 71.8547 30.4287L71.8611 30.4353L71.8633 30.4375L71.8641 30.4384ZM70.3255 30.9786C70.1521 30.8364 69.9367 30.6706 69.6832 30.4959C68.9294 29.9762 67.8578 29.3902 66.5665 29.0957C65.2839 28.8033 63.7759 28.7957 62.1202 29.439C60.6364 30.0155 58.9967 31.1294 57.2795 33.0969C57.2963 33.1039 57.3134 33.1109 57.3306 33.1181C57.9282 33.366 58.7553 33.7214 59.6714 34.1554C61.2741 34.9147 63.2059 35.9405 64.6483 37.0776L70.3255 30.9786ZM56.3989 32.74C56.3989 32.74 56.3989 32.74 56.3989 32.74V32.74Z" fill="black"/>
<path d="M26.1077 87.8187H16.3463V69.0809H31.9252L26.1077 87.8187Z" fill="white"/>
<path fill-rule="evenodd" clip-rule="evenodd" d="M15.6296 68.3641H32.8982L26.6357 88.5354H15.6296V68.3641ZM17.0631 69.7976V87.1019H25.5798L30.9522 69.7976H17.0631Z" fill="black"/>
<path d="M65.0018 87.8187H55.2366V69.0809H70.8116L65.0018 87.8187Z" fill="white"/>
<path fill-rule="evenodd" clip-rule="evenodd" d="M54.5199 68.3641H71.7843L65.5301 88.5354H54.5199V68.3641ZM55.9534 69.7976V87.1019H64.4737L69.839 69.7976H55.9534Z" fill="black"/>
<path d="M77.9981 50.2065H74.0086C70.2163 39.1026 58.0808 30.9794 43.67 30.9794C26.2254 30.9794 12.0914 42.8987 12.0914 57.6015C12.0914 72.3043 26.2254 84.2274 43.67 84.2274C58.0808 84.2274 70.2163 76.108 74.0086 65.0041H77.9981C80.3493 65.0041 82.2683 63.2483 82.2683 61.079V54.1315C82.2683 51.9623 80.3493 50.2065 77.9981 50.2065Z" fill="white"/>
<path fill-rule="evenodd" clip-rule="evenodd" d="M11.3747 57.6015C11.3747 42.3931 25.949 30.2627 43.6701 30.2627C58.1203 30.2627 70.424 38.2957 74.5154 49.4898H77.9981C80.6862 49.4898 82.985 51.5099 82.985 54.1316V61.0791C82.985 63.7007 80.6862 65.7209 77.9981 65.7209H74.5154C70.424 76.915 58.1202 84.9441 43.6701 84.9441C25.9489 84.9441 11.3747 72.8098 11.3747 57.6015ZM43.6701 31.6962C26.5018 31.6962 12.8082 43.4043 12.8082 57.6015C12.8082 71.7989 26.5019 83.5106 43.6701 83.5106C57.8337 83.5106 69.655 75.5338 73.3303 64.7725L73.496 64.2874H77.9981C80.0126 64.2874 81.5515 62.7959 81.5515 61.0791V54.1316C81.5515 52.4148 80.0126 50.9233 77.9981 50.9233H73.496L73.3303 50.4382C69.655 39.6767 57.8335 31.6962 43.6701 31.6962Z" fill="black"/>
<path d="M50.8185 38.0635C50.6399 38.0634 50.4632 38.0273 50.2989 37.9573C48.1331 36.9703 45.782 36.4558 43.4019 36.448C41.0217 36.4401 38.6672 36.9391 36.4949 37.9118C36.3472 37.991 36.1855 38.0403 36.0187 38.057C35.852 38.0736 35.6836 38.0573 35.5232 38.0088C35.3628 37.9604 35.2135 37.8809 35.0838 37.7748C34.9542 37.6687 34.8467 37.538 34.7675 37.3904C34.6883 37.2427 34.639 37.0809 34.6224 36.9142C34.6057 36.7474 34.6221 36.5791 34.6705 36.4187C34.7189 36.2583 34.7984 36.109 34.9046 35.9793C35.0107 35.8496 35.1413 35.7421 35.289 35.6629C36.8047 34.9293 38.4217 34.427 40.0863 34.1726C43.8978 33.5429 47.8103 34.0466 51.338 35.6212C51.6073 35.7386 51.8277 35.9454 51.962 36.2065C52.0963 36.4677 52.1364 36.7672 52.0753 37.0545C52.0141 37.3417 51.8557 37.5991 51.6267 37.7829C51.3977 37.9668 51.1122 38.0659 50.8185 38.0635Z" fill="black"/>
<path fill-rule="evenodd" clip-rule="evenodd" d="M3.66469 51.0577C3.53403 51.3499 3.48828 51.7834 3.71429 52.3902C4.43748 54.3204 5.98721 55.0423 7.63205 55.22C7.65003 55.1575 7.66758 55.0874 7.68399 55.0091C7.76173 54.6385 7.79555 54.1716 7.76865 53.6697C7.71344 52.6393 7.41374 51.6264 6.90683 51.0387M9.09775 55.2505C9.19698 54.7502 9.23135 54.1763 9.20009 53.593C9.13678 52.4115 8.79369 51.0315 7.99229 50.1023L7.99189 50.1019C6.8926 48.8295 5.18523 48.5352 3.89678 49.0433C3.24231 49.3014 2.66608 49.7793 2.35609 50.4725C2.04356 51.1713 2.04 52.0024 2.37123 52.8913L2.37165 52.8925C3.17769 55.0445 4.76844 56.0426 6.40012 56.4525C5.2636 57.108 4.09329 57.1069 3.09843 56.8885C2.43953 56.7439 1.86744 56.5038 1.45809 56.2976C1.25456 56.195 1.09432 56.1024 0.987158 56.037C0.933655 56.0043 0.893618 55.9785 0.868279 55.9618C0.855616 55.9535 0.846647 55.9474 0.841525 55.944L0.837421 55.9412C0.837647 55.9413 0.837889 55.9415 0.426154 56.5282C0.0144192 57.1149 0.0146937 57.1151 0.0149843 57.1153L0.0156477 57.1157L0.0172685 57.1169L0.0216805 57.1199L0.035137 57.1291C0.0461467 57.1366 0.0612187 57.1468 0.0801956 57.1593C0.118136 57.1842 0.17177 57.2187 0.239837 57.2603C0.375818 57.3433 0.570305 57.4555 0.813145 57.5778C1.29654 57.8213 1.98374 58.1115 2.79106 58.2887C4.40801 58.6436 6.5435 58.545 8.40923 56.6996C9.4402 56.7119 10.3946 56.5713 11.095 56.4271C11.4618 56.3517 11.7632 56.2743 11.9749 56.2152C12.0808 56.1857 12.1645 56.1606 12.223 56.1425C12.2523 56.1334 12.2752 56.1261 12.2915 56.1208L12.3109 56.1145L12.3168 56.1126L12.3187 56.1119L12.3195 56.1117C12.3198 56.1116 12.32 56.1115 12.0913 55.4322C11.8626 54.7529 11.8628 54.7528 11.863 54.7528L11.8614 54.7533L11.8503 54.757C11.8395 54.7604 11.8224 54.7659 11.7991 54.7731C11.7525 54.7875 11.6816 54.8088 11.5894 54.8345C11.4049 54.8861 11.1359 54.9552 10.8061 55.0231C10.3315 55.1207 9.7398 55.2139 9.09775 55.2505ZM3.66469 51.0577C3.79793 50.7598 4.05885 50.5203 4.42262 50.3769L3.66469 51.0577ZM4.42262 50.3769C5.17049 50.082 6.22367 50.2483 6.90678 51.0386L4.42262 50.3769Z" fill="black"/>
<path fill-rule="evenodd" clip-rule="evenodd" d="M57.7297 48.6984C58.0097 48.4186 58.4635 48.4187 58.7433 48.6987C59.211 49.1667 59.7663 49.5379 60.3775 49.7912C60.9888 50.0445 61.6439 50.1749 62.3055 50.1749C62.9671 50.1749 63.6222 50.0445 64.2334 49.7912C64.8447 49.5379 65.4 49.1667 65.8677 48.6987C66.1475 48.4187 66.6013 48.4186 66.8813 48.6984C67.1613 48.9783 67.1614 49.4321 66.8816 49.7121C66.2808 50.3132 65.5674 50.7901 64.7822 51.1155C63.997 51.4409 63.1554 51.6084 62.3055 51.6084C61.4555 51.6084 60.6139 51.4409 59.8288 51.1155C59.0436 50.7901 58.3302 50.3132 57.7294 49.7121C57.4495 49.4321 57.4497 48.9783 57.7297 48.6984Z" fill="black"/>
<path fill-rule="evenodd" clip-rule="evenodd" d="M62.3055 50.176C62.7013 50.176 63.0222 50.4969 63.0222 50.8928V53.6271C63.0222 54.0229 62.7013 54.3438 62.3055 54.3438C61.9096 54.3438 61.5887 54.0229 61.5887 53.6271V50.8928C61.5887 50.4969 61.9096 50.176 62.3055 50.176Z" fill="black"/>
<path fill-rule="evenodd" clip-rule="evenodd" d="M64.5377 49.6597C64.8691 49.4431 65.3133 49.5362 65.5298 49.8676L66.9747 52.0785C67.1912 52.4098 67.0982 52.854 66.7668 53.0706C66.4354 53.2871 65.9913 53.194 65.7747 52.8627L64.3299 50.6518C64.1133 50.3204 64.2064 49.8762 64.5377 49.6597Z" fill="black"/>
<path fill-rule="evenodd" clip-rule="evenodd" d="M60.0642 49.6587C60.3961 49.8745 60.4903 50.3184 60.2745 50.6503L58.8373 52.8612C58.6215 53.1931 58.1776 53.2873 57.8457 53.0715C57.5138 52.8558 57.4196 52.4118 57.6354 52.0799L59.0727 49.869C59.2884 49.5371 59.7324 49.443 60.0642 49.6587Z" fill="black"/>
<path d="M58.0997 20.4444C58.1012 23.4278 57.2178 26.3447 55.5613 28.826C53.9048 31.3073 51.5496 33.2416 48.7937 34.3841C46.0377 35.5267 43.0047 35.8263 40.0785 35.2449C37.1523 34.6635 34.4642 33.2273 32.3544 31.118C30.2445 29.0086 28.8076 26.3209 28.2255 23.3948C27.6434 20.4687 27.9421 17.4357 29.084 14.6795C30.2259 11.9232 32.1596 9.56751 34.6405 7.9104C37.1214 6.25328 40.038 5.36918 43.0214 5.36993C47.0195 5.37094 50.8535 6.95934 53.6809 9.78603C56.5083 12.6127 58.0977 16.4464 58.0997 20.4444Z" fill="#E84241"/>
<path fill-rule="evenodd" clip-rule="evenodd" d="M43.0213 6.08669C40.1797 6.08598 37.4016 6.92806 35.0387 8.50643C32.6757 10.0848 30.8339 12.3285 29.7463 14.9538C28.6586 17.5791 28.374 20.4679 28.9285 23.255C29.483 26.042 30.8516 28.602 32.8612 30.6111C34.8708 32.6202 37.4311 33.9881 40.2182 34.5419C43.0054 35.0956 45.8942 34.8103 48.5192 33.7221C51.1442 32.6338 53.3875 30.7914 54.9653 28.428C56.543 26.0646 57.3844 23.2864 57.383 20.4448C57.3811 16.6367 55.8672 12.9853 53.1742 10.2929C50.4812 7.60057 46.8294 6.08765 43.0213 6.08669ZM34.2424 7.31439C36.8412 5.57853 39.8965 4.65241 43.0217 4.6532C47.2097 4.65425 51.226 6.31814 54.1877 9.27916C57.1495 12.2402 58.8144 16.256 58.8165 20.444C58.8181 23.5693 57.8927 26.6247 56.1575 29.224C54.4223 31.8232 51.9552 33.8494 49.0682 35.0463C46.1813 36.2431 43.0042 36.5569 39.9389 35.9479C36.8736 35.3389 34.0578 33.8344 31.8477 31.6248C29.6375 29.4153 28.1324 26.5998 27.5226 23.5347C26.9128 20.4695 27.2258 17.2924 28.4219 14.4051C29.6181 11.5179 31.6436 9.05026 34.2424 7.31439Z" fill="black"/>
<path d="M55.3693 20.4444C55.3693 22.8875 54.6448 25.2757 53.2874 27.307C51.93 29.3383 50.0008 30.9214 47.7436 31.8562C45.4864 32.7909 43.0027 33.0353 40.6067 32.5584C38.2106 32.0815 36.0097 30.9047 34.2825 29.177C32.5553 27.4492 31.3792 25.248 30.903 22.8518C30.4269 20.4555 30.672 17.9719 31.6075 15.715C32.5429 13.4581 34.1266 11.5294 36.1583 10.1726C38.19 8.81586 40.5785 8.09208 43.0215 8.09284C46.2967 8.09384 49.4374 9.39562 51.7529 11.7119C54.0685 14.0281 55.3693 17.1692 55.3693 20.4444Z" fill="#E84241"/>
<path fill-rule="evenodd" clip-rule="evenodd" d="M43.0213 6.08669C40.1797 6.08598 37.4016 6.92806 35.0387 8.50643C32.6757 10.0848 30.8339 12.3285 29.7463 14.9538C28.6586 17.5791 28.374 20.4679 28.9285 23.255C29.483 26.042 30.8516 28.602 32.8612 30.6111C34.8708 32.6202 37.4311 33.9881 40.2182 34.5419C43.0054 35.0956 45.8942 34.8103 48.5192 33.7221C51.1442 32.6338 53.3875 30.7914 54.9653 28.428C56.543 26.0646 57.3844 23.2864 57.383 20.4448C57.3811 16.6367 55.8672 12.9853 53.1742 10.2929C50.4812 7.60057 46.8294 6.08765 43.0213 6.08669ZM34.2424 7.31439C36.8412 5.57853 39.8965 4.65241 43.0217 4.6532C47.2097 4.65425 51.226 6.31814 54.1877 9.27916C57.1495 12.2402 58.8144 16.256 58.8165 20.444C58.8181 23.5693 57.8927 26.6247 56.1575 29.224C54.4223 31.8232 51.9552 33.8494 49.0682 35.0463C46.1813 36.2431 43.0042 36.5569 39.9389 35.9479C36.8736 35.3389 34.0578 33.8344 31.8477 31.6248C29.6375 29.4153 28.1324 26.5998 27.5226 23.5347C26.9128 20.4695 27.2258 17.2924 28.4219 14.4051C29.6181 11.5179 31.6436 9.05026 34.2424 7.31439Z" fill="black"/>
<path fill-rule="evenodd" clip-rule="evenodd" d="M41.7888 8.42194C40.4929 8.42148 39.2096 8.67638 38.0123 9.17207C36.815 9.66776 35.7271 10.3945 34.8108 11.3108C33.8945 12.2271 33.1678 13.315 32.6721 14.5123C32.1764 15.7097 31.9215 16.9929 31.922 18.2888C31.9221 18.6814 31.6039 18.9999 31.2112 19C30.8186 19.0001 30.5002 18.6819 30.5 18.2893C30.4995 16.8066 30.7911 15.3383 31.3583 13.9684C31.9254 12.5985 32.757 11.3538 33.8054 10.3054C34.8538 9.25696 36.0985 8.42542 37.4684 7.85827C38.8383 7.29111 40.3066 6.99947 41.7893 7C42.182 7.00014 42.5002 7.31857 42.5 7.71123C42.4999 8.10388 42.1814 8.42208 41.7888 8.42194Z" fill="white"/>
<path fill-rule="evenodd" clip-rule="evenodd" d="M44.5021 7.69925C44.5314 7.28136 44.8556 6.96937 45.2261 7.0024C46.6594 7.13014 48.0362 7.68853 49.2134 8.61951C49.5177 8.86021 49.5914 9.33355 49.3779 9.67675C49.1645 10.0199 48.7448 10.103 48.4404 9.86234C47.4602 9.08707 46.3137 8.62207 45.1201 8.5157C44.7495 8.48267 44.4729 8.11714 44.5021 7.69925Z" fill="white"/>
<path d="M48.2397 17.5394L44.8683 18.0741C44.7573 17.7573 44.6028 17.4574 44.4094 17.183C44.219 16.973 43.9898 16.8017 43.7344 16.6786V19.299C45.5737 19.7883 46.791 20.3002 47.413 20.8463C47.8081 21.1925 48.1222 21.6212 48.3333 22.1022C48.5443 22.5832 48.647 23.1048 48.6341 23.6299C48.6393 24.2595 48.4895 24.8807 48.198 25.4388C47.6521 26.4728 46.7262 27.2545 45.6154 27.6194C44.9996 27.8027 44.3617 27.901 43.7193 27.9114V29.618H42.3957V27.9038C41.6629 27.8589 40.9396 27.7147 40.2455 27.4753C39.7169 27.2811 39.2303 26.9877 38.812 26.6106C38.4331 26.2719 38.1173 25.8687 37.8791 25.4199C37.6457 24.9307 37.4823 24.4111 37.3936 23.8764L41.0494 23.4516C41.1083 23.9089 41.2578 24.3499 41.4894 24.7486C41.7283 25.0553 42.0398 25.2977 42.3957 25.454V22.2533C41.5108 22.0278 40.6448 21.7337 39.8056 21.3735C39.268 21.0975 38.8108 20.6873 38.4783 20.1827C38.0896 19.5903 37.8935 18.8922 37.917 18.1841C37.9075 17.6807 38.0039 17.1808 38.1998 16.717C38.3958 16.2532 38.6871 15.8357 39.0547 15.4916C39.8131 14.771 40.9306 14.3703 42.4071 14.2894V13.3944H43.7306V14.2894C45.0845 14.3766 46.1198 14.6952 46.8289 15.2527C47.5586 15.8207 48.0594 16.6325 48.2397 17.5394ZM42.4109 16.6331C42.1044 16.7115 41.8267 16.8759 41.6107 17.1071C41.4562 17.2933 41.3741 17.5289 41.3794 17.7708C41.3771 18.0225 41.4585 18.2679 41.6107 18.4685C41.826 18.7045 42.1033 18.8754 42.4109 18.9616V16.6331ZM43.7344 25.5526C44.1621 25.4814 44.5585 25.2832 44.8721 24.9838C45.1006 24.7448 45.2283 24.427 45.2286 24.0963C45.226 23.8065 45.1182 23.5275 44.9252 23.3113C44.594 22.9919 44.1867 22.7622 43.742 22.6439L43.7344 25.5526Z" fill="white"/>
<path fill-rule="evenodd" clip-rule="evenodd" d="M43.2263 0C43.6222 0 43.9431 0.320899 43.9431 0.716748V2.88976C43.9431 3.28561 43.6222 3.60651 43.2263 3.60651C42.8305 3.60651 42.5096 3.28561 42.5096 2.88976V0.716748C42.5096 0.320899 42.8305 0 43.2263 0Z" fill="#E84241"/>
<path fill-rule="evenodd" clip-rule="evenodd" d="M60.0642 20.4443C60.0642 20.0485 60.3851 19.7276 60.781 19.7276H62.954C63.3498 19.7276 63.6707 20.0485 63.6707 20.4443C63.6707 20.8402 63.3498 21.1611 62.954 21.1611H60.781C60.3851 21.1611 60.0642 20.8402 60.0642 20.4443Z" fill="#E84241"/>
<path fill-rule="evenodd" clip-rule="evenodd" d="M22.782 20.4443C22.782 20.0485 23.1029 19.7276 23.4988 19.7276H25.6604C26.0562 19.7276 26.3771 20.0485 26.3771 20.4443C26.3771 20.8402 26.0562 21.1611 25.6604 21.1611H23.4988C23.1029 21.1611 22.782 20.8402 22.782 20.4443Z" fill="#E84241"/>
<path fill-rule="evenodd" clip-rule="evenodd" d="M57.6826 5.9906C57.9618 6.2712 57.9607 6.72502 57.6801 7.00423L56.1442 8.53253C55.8636 8.81174 55.4098 8.81062 55.1306 8.53002C54.8514 8.24942 54.8525 7.79561 55.1331 7.51639L56.669 5.9881C56.9495 5.70888 57.4034 5.71001 57.6826 5.9906Z" fill="#E84241"/>
<path fill-rule="evenodd" clip-rule="evenodd" d="M31.3134 32.3537C31.5933 32.6336 31.5933 33.0874 31.3134 33.3673L29.7813 34.8994C29.5014 35.1793 29.0476 35.1793 28.7677 34.8994C28.4878 34.6195 28.4878 34.1656 28.7677 33.8857L30.2997 32.3537C30.5796 32.0738 31.0335 32.0738 31.3134 32.3537Z" fill="#E84241"/>
<path fill-rule="evenodd" clip-rule="evenodd" d="M55.1312 32.3543C55.4108 32.074 55.8646 32.0735 56.1448 32.353L57.6807 33.8851C57.961 34.1647 57.9615 34.6185 57.682 34.8987C57.4024 35.179 56.9486 35.1796 56.6683 34.9L55.1325 33.3679C54.8522 33.0884 54.8516 32.6345 55.1312 32.3543Z" fill="black"/>
<path fill-rule="evenodd" clip-rule="evenodd" d="M28.767 5.98997C29.0466 5.70972 29.5004 5.70916 29.7807 5.98873L31.3127 7.51702C31.593 7.79658 31.5936 8.2504 31.314 8.53065C31.0344 8.8109 30.5806 8.81146 30.3004 8.5319L28.7683 7.00361C28.488 6.72405 28.4875 6.27023 28.767 5.98997Z" fill="#E84241"/>
<path fill-rule="evenodd" clip-rule="evenodd" d="M51.0881 1.57267C51.4532 1.72576 51.625 2.14579 51.4719 2.51084L50.6339 4.5094C50.4808 4.87445 50.0607 5.04628 49.6957 4.8932C49.3306 4.74012 49.1588 4.32009 49.3119 3.95504L50.15 1.95648C50.3031 1.59143 50.7231 1.41959 51.0881 1.57267Z" fill="#E84241"/>
<path fill-rule="evenodd" clip-rule="evenodd" d="M58.777 26.9188C58.9294 26.5535 59.3491 26.3809 59.7144 26.5333L61.7054 27.3638C62.0707 27.5162 62.2433 27.9359 62.0909 28.3012C61.9385 28.6666 61.5188 28.8392 61.1535 28.6868L59.1625 27.8563C58.7972 27.7039 58.6246 27.2842 58.777 26.9188Z" fill="#E84241"/>
<path fill-rule="evenodd" clip-rule="evenodd" d="M24.3502 12.5841C24.5024 12.2187 24.9221 12.0459 25.2875 12.1981L27.2898 13.0325C27.6552 13.1847 27.828 13.6044 27.6757 13.9697C27.5235 14.3351 27.1038 14.5079 26.7384 14.3557L24.7361 13.5214C24.3707 13.3691 24.1979 12.9495 24.3502 12.5841Z" fill="#E84241"/>
<path fill-rule="evenodd" clip-rule="evenodd" d="M62.1263 12.6549C62.2771 13.0209 62.1027 13.4399 61.7367 13.5907L59.7305 14.4174C59.3646 14.5682 58.9456 14.3938 58.7948 14.0278C58.644 13.6618 58.8184 13.2429 59.1844 13.092L61.1905 12.2653C61.5565 12.1145 61.9755 12.2889 62.1263 12.6549Z" fill="#E84241"/>
<path fill-rule="evenodd" clip-rule="evenodd" d="M27.6502 26.8605C27.8013 27.2264 27.6271 27.6455 27.2612 27.7966L25.2589 28.6233C24.893 28.7743 24.4739 28.6002 24.3228 28.2343C24.1718 27.8684 24.3459 27.4493 24.7118 27.2983L26.7142 26.4715C27.0801 26.3205 27.4991 26.4946 27.6502 26.8605Z" fill="#E84241"/>
<path fill-rule="evenodd" clip-rule="evenodd" d="M35.4327 1.54467C35.7985 1.3936 36.2176 1.56774 36.3687 1.93363L37.1954 3.93599C37.3465 4.30188 37.1724 4.72095 36.8065 4.87202C36.4406 5.02309 36.0215 4.84895 35.8704 4.48306L35.0437 2.48071C34.8926 2.11482 35.0668 1.69574 35.4327 1.54467Z" fill="#E84241"/>
</svg>
