<svg width="47" height="112" viewBox="0 0 47 112" fill="none" xmlns="http://www.w3.org/2000/svg">
<path d="M39.4083 44.059C38.3863 49.2282 36.8839 54.2907 34.9208 59.1806C35.9429 59.1283 37.8872 59.3137 38.8665 61.2723C40.2165 63.9772 42.7931 69.7149 44.4378 73.3991H45.9115V57.5263C45.9115 48.2613 41.1054 44.9384 39.4083 44.059Z" fill="#E84241"/>
<path fill-rule="evenodd" clip-rule="evenodd" d="M38.7591 42.7106L39.8217 43.2612C41.7568 44.264 46.8099 47.863 46.8099 57.5263V74.2975H43.855L43.6174 73.7653C41.9693 70.0738 39.4023 64.3577 38.0629 61.6741C37.3323 60.2129 35.8864 60.0308 34.9667 60.0779L33.5636 60.1497L34.087 58.8459C36.0293 54.0078 37.5157 48.999 38.5269 43.8847L38.7591 42.7106ZM40.0292 45.5007C39.0943 49.8799 37.8171 54.179 36.2094 58.3584C37.3842 58.5552 38.8189 59.1682 39.6701 60.8705L39.6703 60.871C40.9651 63.4652 43.3689 68.8049 45.013 72.4838V57.5263C45.013 50.2423 41.9364 46.886 40.0292 45.5007Z" fill="black"/>
<path d="M7.61533 44.059C8.63667 49.2273 10.1358 54.2896 12.0934 59.1806C11.0761 59.1283 9.12702 59.3137 8.1525 61.2723C6.80244 63.9772 4.22117 69.7149 2.58112 73.3991H1.08844V57.5263C1.08844 48.2613 5.91348 44.9384 7.61533 44.059Z" fill="#E84241"/>
<path fill-rule="evenodd" clip-rule="evenodd" d="M8.26503 42.7119L8.4968 43.8848C9.50737 48.9985 10.9907 54.0073 12.9276 58.8468L13.4491 60.1499L12.0473 60.0779C11.1315 60.0308 9.68295 60.2134 8.95695 61.6725L8.95646 61.6735C7.61715 64.3568 5.04467 70.0744 3.40199 73.7645L3.16469 74.2975H0.190048V57.5263C0.190048 47.8611 5.26417 44.2626 7.20292 43.2608L8.26503 42.7119ZM6.99392 45.4985C5.07962 46.8825 1.98696 50.2385 1.98696 57.5263V72.5006H1.99788C3.63892 68.8201 6.05154 63.47 7.34834 60.8717C8.19579 59.1688 9.63196 58.5555 10.8063 58.3585C9.20261 54.1776 7.92793 49.8778 6.99392 45.4985Z" fill="black"/>
<path d="M20.3981 2.52072C15.5921 8.51045 6.61226 21.7449 6.61226 37.09C6.61226 50.4623 15.9677 68.6501 15.9677 68.6501H30.7613C30.7613 68.6501 40.112 50.4623 40.112 37.09C40.112 21.7782 31.1559 8.56749 26.3261 2.56351C24.5529 0.357768 22.1428 0.343507 20.3981 2.52072Z" fill="white"/>
<path fill-rule="evenodd" clip-rule="evenodd" d="M23.3576 9.1787e-05C24.7376 0.00953303 26.0181 0.746419 27.0262 2.00038C31.8876 8.04366 41.0105 21.4593 41.0105 37.09C41.0105 43.9451 38.6234 51.9609 36.2777 58.2008C35.0999 61.334 33.9224 64.0451 33.0393 65.9734C32.5975 66.9379 32.2291 67.7074 31.9705 68.2368C31.8411 68.5016 31.7393 68.7064 31.6694 68.8456C31.6345 68.9152 31.6075 68.9684 31.5892 69.0045L31.5682 69.0458L31.5611 69.0596L31.5606 69.0605C31.5605 69.0607 31.5604 69.0609 30.7614 68.6501L31.5604 69.0609L31.3097 69.5486H15.4195L15.1688 69.0611L15.9677 68.6501C15.1688 69.0611 15.1687 69.0609 15.1685 69.0606L15.1681 69.0598L15.161 69.046L15.14 69.0047C15.1216 68.9686 15.0947 68.9153 15.0597 68.8457C14.9898 68.7065 14.8879 68.5017 14.7585 68.237C14.4998 67.7075 14.1311 66.9381 13.6891 65.9736C12.8055 64.0453 11.6275 61.3342 10.4491 58.201C8.10214 51.961 5.71385 43.9452 5.71385 37.09C5.71385 21.4264 14.8601 7.98728 19.697 1.95892M16.5222 67.7517C16.4779 67.6621 16.428 67.5607 16.3729 67.448C16.1201 66.9306 15.7578 66.1746 15.3227 65.2251C14.4522 63.3253 13.2914 60.6537 12.131 57.5684C9.80018 51.3713 7.51077 43.6071 7.51077 37.09C7.51077 22.0638 16.3237 9.03433 21.0989 3.08302L21.0993 3.08257C21.8457 2.15116 22.6437 1.79217 23.3453 1.79697C24.0498 1.80179 24.8609 2.17481 25.6259 3.12645C30.4241 9.09112 39.2136 22.0971 39.2136 37.09C39.2136 43.6072 36.9253 51.3715 34.5957 57.5685C33.4359 60.6538 32.2756 63.3254 31.4055 65.2252C30.9706 66.1748 30.6086 66.9307 30.3559 67.4482C30.3008 67.5608 30.251 67.6621 30.2067 67.7517H16.5222ZM23.3576 9.1787e-05C21.9748 -0.00936866 20.6956 0.712934 19.6974 1.95847L23.3576 9.1787e-05Z" fill="black"/>
<path d="M31.0798 68.6503H15.9485V72.1062H31.0798V68.6503Z" fill="#E84241"/>
<path fill-rule="evenodd" clip-rule="evenodd" d="M15.0502 67.7517H31.9783V73.0046H15.0502V67.7517ZM16.8471 69.5486V71.2077H30.1814V69.5486H16.8471Z" fill="black"/>
<path d="M31.0799 72.106C31.0799 72.106 38.6858 79.8546 35.9096 90.6123C35.9096 90.6123 34.0795 85.1265 31.6028 82.7543C31.6028 82.7543 34.3267 88.2449 29.1451 95.7749C23.9635 103.305 19.6661 107.398 22.3567 110.839C22.3567 110.839 11.3851 94.2679 16.8709 83.1869C16.8709 83.1869 12.5688 90.0704 12.8873 94.5959C12.8873 94.5959 9.75453 81.1476 15.9487 72.1107L31.0799 72.106Z" fill="white"/>
<path fill-rule="evenodd" clip-rule="evenodd" d="M31.7211 71.4767L31.0799 72.1061C31.7211 71.4767 31.7214 71.477 31.7217 71.4774L31.7225 71.4782L31.7246 71.4803L31.7309 71.4868L31.7516 71.5083C31.7688 71.5264 31.793 71.552 31.8236 71.585C31.8848 71.651 31.9714 71.7465 32.0792 71.8704C32.2947 72.1182 32.5949 72.4799 32.9442 72.9465C33.6419 73.8785 34.5398 75.2346 35.3478 76.9405C36.9643 80.3532 38.2346 85.199 36.7796 90.8369L36.0198 93.7814L35.0575 90.897L35.0567 90.8946L35.0533 90.8847L35.0388 90.8423C35.0257 90.8042 35.0059 90.7469 34.9795 90.6726C34.9267 90.5238 34.8479 90.3068 34.7455 90.0384C34.5405 89.5007 34.242 88.76 33.8687 87.9484C33.6682 87.5125 33.4499 87.0645 33.2168 86.6216C33.2158 89.102 32.514 92.4641 29.8852 96.2843C28.8399 97.8035 27.8285 99.1861 26.9104 100.441C26.6831 100.752 26.4614 101.055 26.2464 101.35C25.155 102.849 24.2426 104.139 23.5765 105.29C22.9065 106.448 22.5326 107.388 22.447 108.188C22.3917 108.705 22.4542 109.182 22.669 109.648C22.8077 109.875 22.9177 110.05 22.9927 110.168C23.0307 110.228 23.0597 110.273 23.0788 110.302L23.1 110.335L23.1059 110.344C23.1059 110.344 23.106 110.344 23.1019 110.347L21.6489 111.393C21.4228 111.104 21.2363 110.808 21.0873 110.505C20.7949 110.023 20.3967 109.345 19.9396 108.508C18.9824 106.755 17.7622 104.297 16.7146 101.482C15.4899 98.1911 14.4674 94.3221 14.437 90.4912C13.9806 91.9224 13.6997 93.3413 13.7835 94.533L12.0123 94.7999L12.8873 94.5961C12.0123 94.7999 12.0122 94.7996 12.0121 94.7993L12.0112 94.7954L12.0091 94.7861L12.0016 94.7529C11.9952 94.7243 11.9862 94.6832 11.9749 94.6299C11.9522 94.5233 11.9203 94.3682 11.8823 94.169C11.8062 93.7707 11.7056 93.1955 11.6049 92.4785C11.4036 91.0457 11.2013 89.0401 11.1967 86.7441C11.1877 82.1761 11.9608 76.3397 15.2076 71.6029L15.4752 71.2125L31.4568 71.2075L31.7211 71.4767ZM13.0614 88.9634C13.3377 88.2091 13.6414 87.4857 13.9413 86.8238C14.4718 85.6525 15.0116 84.628 15.4186 83.8965C15.6223 83.5303 15.7934 83.2364 15.9142 83.033C15.9746 82.9312 16.0225 82.852 16.0557 82.7976C16.0723 82.7704 16.0852 82.7493 16.0942 82.7348L16.1047 82.7179L16.1077 82.7131L16.1088 82.7112C16.109 82.711 16.109 82.7109 16.8709 83.1871L16.1088 82.7112L17.6761 83.5857C15.1086 88.772 16.3576 95.3706 18.3987 100.855C19.2194 103.061 20.1526 105.045 20.9719 106.623C21.2177 105.892 21.5827 105.148 22.0212 104.39C22.7407 103.147 23.7061 101.786 24.7937 100.293C25.0129 99.9917 25.2373 99.6848 25.4665 99.3715C26.3834 98.1181 27.3757 96.7613 28.4049 95.2657C30.8887 91.6563 31.4493 88.5841 31.4187 86.4539C31.4033 85.3828 31.2381 84.5373 31.0813 83.9689C31.0029 83.6847 30.9268 83.4702 30.8728 83.3319C30.8458 83.2628 30.8244 83.2128 30.8111 83.1828C30.8044 83.1678 30.7998 83.1578 30.7975 83.153C30.797 83.1519 30.7966 83.1511 30.7963 83.1505L30.7961 83.15L30.7958 83.1495L28.5159 78.5539L32.2243 82.1056C33.5938 83.4174 34.7285 85.5173 35.5013 87.1976C35.5211 87.2408 35.5408 87.2838 35.5602 87.3265C35.8758 83.5097 34.9097 80.2132 33.7239 77.7097C32.9774 76.1338 32.1473 74.8804 31.5057 74.0234C31.1853 73.5954 30.913 73.2677 30.7234 73.0497C30.7098 73.0341 30.6967 73.0191 30.6841 73.0047L16.4301 73.0092C13.6976 77.2427 12.9851 82.4577 12.9936 86.7405C12.9952 87.5202 13.0206 88.2653 13.0614 88.9634Z" fill="black"/>
<path d="M18.4825 72.1062C18.4825 72.1062 15.3973 74.6162 16.2625 79.4935C16.2625 79.4935 16.7378 77.8439 18.9103 76.8362C18.9103 76.8362 17.7646 85.8683 21.349 90.8977C21.349 90.8977 21.5677 83.4391 24.6481 82.341C26.5975 81.5684 28.1646 80.0596 29.0105 78.1409C29.8565 76.2221 29.9134 74.0475 29.1689 72.0872L18.4825 72.1062Z" fill="white"/>
<path d="M23.3455 11.1013C26.0378 11.1222 28.694 10.4807 31.0799 9.23303C29.6186 6.92908 28.0316 4.7073 26.3261 2.57779C24.5577 0.372051 22.157 0.357789 20.4029 2.53501C18.6822 4.68279 17.0809 6.9236 15.6064 9.24729C17.9954 10.4896 20.6529 11.1263 23.3455 11.1013Z" fill="white"/>
<path fill-rule="evenodd" clip-rule="evenodd" d="M23.3653 0.0143741C24.7447 0.0238271 26.0218 0.761857 27.0271 2.01581L27.0274 2.01617C28.7535 4.17142 30.3597 6.42004 31.8386 8.75184L32.3617 9.57664L31.4962 10.0292C28.982 11.344 26.1833 12.0206 23.3462 11.9998C20.5091 12.0249 17.7091 11.3535 15.1919 10.0444L14.3232 9.59268L14.8478 8.76593C16.34 6.41441 17.9604 4.14677 19.7017 1.97327L19.7033 1.97135C20.7053 0.727664 21.9838 0.00490634 23.3653 0.0143741ZM23.3455 11.1013L23.3525 10.2028C25.5679 10.2201 27.7574 9.76279 29.775 8.86611C28.4846 6.89198 27.0997 4.98099 25.6251 3.13981C24.8621 2.18803 24.0546 1.81606 23.353 1.81125C22.6538 1.80646 21.8552 2.16495 21.1033 3.09783C19.6143 4.95644 18.2158 6.88557 16.9127 8.87847C18.9321 9.77035 21.1221 10.2234 23.3372 10.2029L23.3455 11.1013Z" fill="black"/>
<path d="M34.0272 34.7701C34.0281 36.8869 33.4012 38.9565 32.2258 40.7169C31.0504 42.4774 29.3791 43.8496 27.4237 44.6601C25.4682 45.4706 23.3162 45.6829 21.2401 45.2702C19.1639 44.8575 17.2568 43.8382 15.76 42.3414C14.2632 40.8446 13.2439 38.9375 12.8312 36.8613C12.4184 34.7852 12.6308 32.6332 13.4413 30.6777C14.2518 28.7222 15.624 27.0511 17.3845 25.8756C19.1449 24.7002 21.2145 24.0733 23.3313 24.0742C26.1676 24.0755 28.8874 25.2028 30.893 27.2084C32.8986 29.214 34.0259 31.9338 34.0272 34.7701Z" fill="white"/>
<path fill-rule="evenodd" clip-rule="evenodd" d="M23.3309 24.9727C21.3919 24.9718 19.4961 25.5461 17.8835 26.6229C16.2708 27.6996 15.0138 29.2305 14.2714 31.0218C13.5289 32.8131 13.3344 34.7843 13.7125 36.6862C14.0905 38.588 15.0242 40.335 16.3953 41.7061C17.7665 43.0773 19.5135 44.0109 21.4153 44.389C23.3172 44.7671 25.2884 44.5726 27.0797 43.8302C28.871 43.0877 30.4019 41.8307 31.4787 40.218C32.5554 38.6054 33.1297 36.7096 33.1288 34.7706C33.1276 32.1724 32.095 29.6809 30.2578 27.8437C28.4206 26.0065 25.9291 24.9739 23.3309 24.9727ZM16.8857 25.1284C18.7939 23.8543 21.0372 23.1748 23.3317 23.1758C26.4062 23.1771 29.3544 24.3991 31.5284 26.5731C33.7024 28.7471 34.9244 31.6953 34.9257 34.7698C34.9267 37.0643 34.2472 39.3076 32.9731 41.2158C31.6989 43.1241 29.8874 44.6116 27.7677 45.4901C25.6481 46.3687 23.3154 46.5988 21.065 46.1514C18.8145 45.7041 16.7472 44.5992 15.1247 42.9768C13.5023 41.3543 12.3974 39.287 11.95 37.0365C11.5026 34.786 11.7328 32.4534 12.6114 30.3337C13.4899 28.2141 14.9774 26.4026 16.8857 25.1284Z" fill="black"/>
<g style="mix-blend-mode:multiply">
<path d="M23.3739 26.841H23.3455C22.2875 26.8151 21.2351 27.0011 20.2501 27.3881C19.2652 27.775 18.3675 28.3551 17.6101 29.0942C16.8527 29.8333 16.2509 30.7164 15.8399 31.6916C15.429 32.6668 15.2173 33.7144 15.2173 34.7726C15.2173 35.8309 15.429 36.8784 15.8399 37.8536C16.2509 38.8288 16.8527 39.712 17.6101 40.4511C18.3675 41.1901 19.2652 41.7702 20.2501 42.1572C21.2351 42.5442 22.2875 42.7302 23.3455 42.7043H23.3739V26.841Z" fill="#E84241"/>
</g>
</svg>
