<svg width="61" height="87" viewBox="0 0 61 87" fill="none" xmlns="http://www.w3.org/2000/svg">
<path d="M51.6743 36.1691H9.33396C8.2761 36.1685 7.22849 36.3764 6.25099 36.7809C5.2735 37.1853 4.38527 37.7784 3.63705 38.5263C2.88884 39.2741 2.2953 40.162 1.89035 41.1393C1.48539 42.1166 1.27696 43.1641 1.27696 44.222V77.6133C1.27805 79.7487 2.12683 81.7964 3.6368 83.3063C5.14678 84.8163 7.19443 85.6651 9.32985 85.6662H51.6702C53.8056 85.6651 55.8533 84.8163 57.3633 83.3063C58.8732 81.7964 59.722 79.7487 59.7231 77.6133V44.222C59.7231 42.0869 58.8753 40.0392 57.3659 38.5292C55.8566 37.0191 53.8094 36.1702 51.6743 36.1691Z" fill="white"/>
<path fill-rule="evenodd" clip-rule="evenodd" d="M5.95391 36.0629C7.02566 35.6195 8.17407 35.3915 9.33393 35.3921H51.6743C54.0153 35.3933 56.2605 36.3241 57.9154 37.9799C59.5703 39.6357 60.5 41.8809 60.5 44.2219V77.6132C60.4988 79.9546 59.5682 82.2001 57.9126 83.8557C56.257 85.5112 54.0119 86.4419 51.6706 86.4431H9.32982C6.98847 86.4419 4.74297 85.5112 3.0874 83.8557C1.43182 82.2001 0.501194 79.955 0.5 77.6136L0.5 44.2219C0.5 43.062 0.728539 41.9134 1.17256 40.8418C1.61658 39.7703 2.26738 38.7967 3.08779 37.9767C3.90819 37.1567 4.88211 36.5064 5.95391 36.0629ZM51.6743 36.9459H9.33393C8.37812 36.9455 7.43119 37.1333 6.548 37.4987C5.66481 37.8642 4.86227 38.4 4.18624 39.0757C3.51021 39.7514 2.97394 40.5537 2.60806 41.4367C2.24217 42.3197 2.05385 43.2661 2.05385 44.2219V77.6132C2.05494 79.5426 2.82186 81.3926 4.18614 82.7569C5.55051 84.1213 7.40071 84.8882 9.33021 84.8892H51.6698C53.5993 84.8882 55.4495 84.1213 56.8139 82.7569C58.1782 81.3926 58.9452 79.5424 58.9462 77.6128V44.2219C58.9462 42.2928 58.1801 40.4427 56.8164 39.0783C55.4527 37.714 53.6033 36.947 51.6743 36.9459Z" fill="black"/>
<path d="M30.237 1.05945C24.3594 1.13507 18.7477 3.52149 14.616 7.70251C10.4842 11.8835 8.16438 17.523 8.15839 23.4012V36.1444H15.9975V23.4012C16.0022 19.6012 17.4955 15.9543 20.1574 13.2425C22.8193 10.5306 26.4378 8.96974 30.237 8.89447V1.05945Z" fill="#E84241"/>
<path d="M52.8458 36.1691H45.0067V23.4259C45.0391 21.5006 44.6879 19.5881 43.9735 17.7999C43.2591 16.0117 42.1959 14.3836 40.8458 13.0106C39.4957 11.6376 37.8858 10.5471 36.1099 9.80273C34.334 9.05836 32.4276 8.675 30.502 8.675C28.5764 8.675 26.6701 9.05836 24.8942 9.80273C23.1183 10.5471 21.5084 11.6376 20.1583 13.0106C18.8082 14.3836 17.7449 16.0117 17.0306 17.7999C16.3162 19.5881 15.965 21.5006 15.9974 23.4259V36.1691H8.15824V23.4259C8.1181 20.4662 8.66638 17.528 9.77125 14.7819C10.8761 12.0358 12.5156 9.53663 14.5943 7.42944C16.6731 5.32226 19.1499 3.64908 21.8807 2.50707C24.6115 1.36506 27.542 0.776978 30.502 0.776978C33.462 0.776978 36.3926 1.36506 39.1234 2.50707C41.8542 3.64908 44.3309 5.32226 46.4097 7.42944C48.4885 9.53663 50.128 12.0358 51.2328 14.7819C52.3377 17.528 52.886 20.4662 52.8458 23.4259V36.1691Z" fill="#E84241"/>
<path fill-rule="evenodd" clip-rule="evenodd" d="M30.502 1.55385C27.6449 1.55385 24.8163 2.12149 22.1804 3.22379C19.5445 4.3261 17.1539 5.9411 15.1474 7.97502C13.1409 10.0089 11.5584 12.4212 10.492 15.0718C9.42553 17.7224 8.89631 20.5585 8.93506 23.4153L8.93513 23.4206V35.3921H15.2204V23.4323C15.1872 21.4061 15.5572 19.3935 16.309 17.5116C17.0617 15.6276 18.1819 13.9124 19.6043 12.4658C21.0267 11.0193 22.7228 9.87039 24.5938 9.08615C26.4648 8.30191 28.4733 7.89802 30.502 7.89802C32.5307 7.89802 34.5392 8.30191 36.4102 9.08615C38.2812 9.87039 39.9773 11.0193 41.3997 12.4658C42.8221 13.9124 43.9423 15.6276 44.695 17.5116C45.4468 19.3935 45.8168 21.4061 45.7836 23.4323V35.3921H52.0689V23.4206L52.0689 23.4153C52.1077 20.5585 51.5785 17.7224 50.512 15.0718C49.4456 12.4212 47.8631 10.0089 45.8566 7.97502C43.8501 5.9411 41.4595 4.3261 38.8236 3.22379C36.1877 2.12149 33.3591 1.55385 30.502 1.55385ZM21.5809 1.79025C24.4067 0.60853 27.4391 0 30.502 0C33.5649 0 36.5973 0.60853 39.4231 1.79025C42.2489 2.97196 44.8117 4.70331 46.9628 6.88376C49.1138 9.06421 50.8103 11.6503 51.9536 14.4918C53.0962 17.3317 53.6635 20.3702 53.6227 23.431V36.946H44.2297V23.4193L44.2298 23.4128C44.2605 21.5906 43.9281 19.7805 43.252 18.0881C42.5759 16.3956 41.5696 14.8548 40.2918 13.5553C39.014 12.2558 37.4903 11.2237 35.8095 10.5192C34.1287 9.8147 32.3245 9.45187 30.502 9.45187C28.6795 9.45187 26.8753 9.8147 25.1945 10.5192C23.5137 11.2237 21.99 12.2558 20.7122 13.5553C19.4344 14.8548 18.4281 16.3956 17.752 18.0881C17.0759 19.7805 16.7435 21.5906 16.7742 23.4128L16.7743 23.4193V36.946H7.38128V23.4311C7.34047 20.3702 7.90782 17.3317 9.05044 14.4918C10.1937 11.6503 11.8902 9.06421 14.0412 6.88376C16.1923 4.70331 18.7551 2.97196 21.5809 1.79025Z" fill="black"/>
<path d="M38.0062 55.1071C38.007 53.7387 37.6337 52.3961 36.9266 51.2245C36.2195 50.0529 35.2056 49.0969 33.9945 48.4598C32.7834 47.8228 31.4212 47.5289 30.0552 47.61C28.6892 47.6911 27.3713 48.1441 26.2441 48.92C25.1169 49.6959 24.2233 50.7651 23.6598 52.0122C23.0963 53.2592 22.8845 54.6365 23.0471 55.9953C23.2098 57.354 23.7408 58.6424 24.5828 59.7212C25.4247 60.7999 26.5455 61.628 27.824 62.1159L26.8004 74.0616H34.1997L33.1762 62.1159C34.5962 61.574 35.8182 60.6138 36.6807 59.3624C37.5432 58.1109 38.0054 56.627 38.0062 55.1071Z" fill="#333333"/>
<path fill-rule="evenodd" clip-rule="evenodd" d="M26.7293 5.47233C26.8622 5.88034 26.6391 6.31876 26.231 6.45158C22.7443 7.58655 19.6288 9.64228 17.2139 12.4016C14.7989 15.1608 13.1741 18.5212 12.5111 22.1276C12.4335 22.5496 12.0285 22.8288 11.6065 22.7512C11.1845 22.6737 10.9052 22.2687 10.9828 21.8467C11.6964 17.965 13.4453 14.3481 16.0446 11.3782C18.6439 8.40829 21.9972 6.19565 25.7501 4.97403C26.1581 4.84122 26.5965 5.06431 26.7293 5.47233Z" fill="white"/>
<path fill-rule="evenodd" clip-rule="evenodd" d="M30.5 5.06746L30.4247 4.29419C29.9977 4.33574 29.6851 4.71563 29.7267 5.14269C29.7682 5.56908 30.1469 5.88129 30.5732 5.84093C30.5732 5.84093 30.5732 5.84093 30.5732 5.84093C30.5734 5.84091 30.5738 5.84087 30.5744 5.84083L30.5881 5.83973C30.602 5.83868 30.6254 5.83708 30.6579 5.83538C30.7228 5.83198 30.8239 5.82822 30.9576 5.82781C31.2252 5.82699 31.6229 5.83959 32.1233 5.89514C33.1243 6.00626 34.5329 6.28884 36.1329 6.97734C36.527 7.14694 36.984 6.96492 37.1536 6.57078C37.3232 6.17664 37.1412 5.71963 36.7471 5.55003C34.9845 4.79155 33.423 4.47602 32.2947 4.35078C31.7304 4.28814 31.2736 4.27299 30.9529 4.27397C30.7924 4.27446 30.6659 4.27899 30.5767 4.28365C30.5321 4.28598 30.4969 4.28835 30.4714 4.29027C30.4587 4.29123 30.4484 4.29207 30.4406 4.29275L30.4308 4.29362L30.4273 4.29394L30.4259 4.29408L30.4253 4.29414C30.425 4.29416 30.4247 4.29419 30.5 5.06746Z" fill="white"/>
</svg>
