<svg width="18" height="19" viewBox="0 0 18 19" fill="none" xmlns="http://www.w3.org/2000/svg">
<path d="M2.32143 0C1.83836 0 1.37507 0.187667 1.03348 0.521716C0.6919 0.855765 0.5 1.30883 0.5 1.78125V17.2188C0.5 17.6912 0.6919 18.1442 1.03348 18.4783C1.37507 18.8123 1.83836 19 2.32143 19H10.8214C11.3045 19 11.7678 18.8123 12.1094 18.4783C12.451 18.1442 12.6429 17.6912 12.6429 17.2188V15.4375C12.6429 15.28 12.5789 15.129 12.465 15.0177C12.3512 14.9063 12.1967 14.8438 12.0357 14.8438C11.5342 14.8438 11.2136 14.7226 10.9963 14.5635C10.7741 14.4008 10.6053 14.1574 10.4814 13.8237C10.2216 13.1254 10.2143 12.2004 10.2143 11.2812C10.2143 11.2031 10.1985 11.1258 10.1679 11.0537C10.1372 10.9815 10.0924 10.916 10.0358 10.8609L9.6885 10.5201L8.21557 9.07963C7.6485 8.52506 7.48214 8.15337 7.45057 7.94556C7.42629 7.77931 7.47729 7.66769 7.59871 7.55369C7.85857 7.31025 8.04436 7.14519 8.25443 7.09531C8.3795 7.06444 8.66486 7.04306 9.17729 7.54419L12.8201 11.1067C12.934 11.2182 13.0885 11.2809 13.2496 11.281C13.3293 11.281 13.4084 11.2657 13.4821 11.2359C13.5558 11.2061 13.6228 11.1624 13.6793 11.1073C13.7357 11.0522 13.7805 10.9867 13.8111 10.9146C13.8417 10.8426 13.8574 10.7653 13.8575 10.6873C13.8575 10.6093 13.8419 10.532 13.8114 10.4599C13.7809 10.3879 13.7362 10.3223 13.6799 10.2671L12.6429 9.25419V5.58956L15.7514 8.62956C15.9208 8.79495 16.0551 8.99135 16.1468 9.20754C16.2385 9.42372 16.2857 9.65546 16.2857 9.8895V18.4062C16.2857 18.5637 16.3497 18.7147 16.4635 18.8261C16.5774 18.9374 16.7318 19 16.8929 19C17.0539 19 17.2083 18.9374 17.3222 18.8261C17.436 18.7147 17.5 18.5637 17.5 18.4062V9.8895C17.4998 9.10249 17.1801 8.34776 16.6111 7.79119L12.6429 3.91044V1.78125C12.6429 1.30883 12.451 0.855765 12.1094 0.521716C11.7678 0.187667 11.3045 0 10.8214 0H2.32143ZM11.4286 4.15625V8.06669L10.037 6.70463C9.33393 6.01825 8.63571 5.78194 7.96664 5.94106C7.83521 5.97279 7.70775 6.01858 7.58657 6.07763C7.04378 5.92386 6.47185 5.89565 5.91599 5.99524C5.36013 6.09482 4.83558 6.31947 4.38377 6.65142C3.93197 6.98338 3.5653 7.41354 3.31274 7.90792C3.06019 8.40231 2.92866 8.94736 2.92857 9.5C2.92852 10.1887 3.13259 10.8626 3.51608 11.4402C3.89957 12.0179 4.44603 12.4744 5.08933 12.7546C5.73264 13.0348 6.44519 13.1266 7.14076 13.019C7.83633 12.9113 8.48508 12.6089 9.0085 12.1481C9.02914 12.8345 9.09957 13.585 9.34 14.2298C9.51971 14.7131 9.80629 15.1751 10.2677 15.5123L10.275 15.5194C9.90524 15.6332 9.58222 15.8593 9.35291 16.1649C9.12361 16.4705 8.99998 16.8397 9 17.2188V17.8125H4.14286V17.2188C4.14286 16.7463 3.95096 16.2933 3.60937 15.9592C3.26779 15.6252 2.8045 15.4375 2.32143 15.4375H1.71429V3.5625H2.32143C2.8045 3.5625 3.26779 3.37483 3.60937 3.04078C3.95096 2.70673 4.14286 2.25367 4.14286 1.78125V1.1875H9V1.78125C9 2.25367 9.1919 2.70673 9.53348 3.04078C9.87507 3.37483 10.3384 3.5625 10.8214 3.5625H11.4286V4.15625ZM11.4286 17.2188V17.2294C11.4257 17.3851 11.3605 17.5333 11.2469 17.6424C11.1334 17.7514 10.9806 17.8125 10.8214 17.8125H10.2143V17.2188C10.2143 17.0613 10.2783 16.9103 10.3921 16.7989C10.506 16.6876 10.6604 16.625 10.8214 16.625H11.4286V17.2188ZM4.14286 9.5C4.14287 8.89602 4.37818 8.31473 4.80091 7.8744C5.22365 7.43408 5.80205 7.1678 6.41843 7.12975C6.26786 7.40287 6.19136 7.73537 6.24964 8.11894C6.33586 8.69131 6.70864 9.28625 7.35586 9.91919L8.45721 10.9963C8.14104 11.3773 7.71194 11.6532 7.22891 11.786C6.74588 11.9189 6.23263 11.9021 5.75972 11.7381C5.2868 11.5741 4.87745 11.2709 4.58792 10.8701C4.29839 10.4693 4.14292 9.9907 4.14286 9.5ZM2.92857 1.1875V1.78125C2.92857 1.93872 2.8646 2.08974 2.75074 2.20109C2.63688 2.31244 2.48245 2.375 2.32143 2.375H1.71429V1.78125C1.71429 1.62378 1.77825 1.47276 1.89211 1.36141C2.00598 1.25006 2.1604 1.1875 2.32143 1.1875H2.92857ZM1.71429 16.625H2.32143C2.48245 16.625 2.63688 16.6876 2.75074 16.7989C2.8646 16.9103 2.92857 17.0613 2.92857 17.2188V17.8125H2.32143C2.1604 17.8125 2.00598 17.7499 1.89211 17.6386C1.77825 17.5272 1.71429 17.3762 1.71429 17.2188V16.625ZM11.4286 2.375H10.8214C10.6604 2.375 10.506 2.31244 10.3921 2.20109C10.2783 2.08974 10.2143 1.93872 10.2143 1.78125V1.1875H10.8214C10.9825 1.1875 11.1369 1.25006 11.2507 1.36141C11.3646 1.47276 11.4286 1.62378 11.4286 1.78125V2.375Z" fill="black"/>
</svg>
