<svg width="20" height="15" viewBox="0 0 20 15" fill="none" xmlns="http://www.w3.org/2000/svg">
<path d="M17.125 1.5625C17.4399 1.5625 17.742 1.68761 17.9647 1.91031C18.1874 2.13301 18.3125 2.43506 18.3125 2.75V12.25C18.3125 12.5649 18.1874 12.867 17.9647 13.0897C17.742 13.3124 17.4399 13.4375 17.125 13.4375H2.875C2.56006 13.4375 2.25801 13.3124 2.03531 13.0897C1.81261 12.867 1.6875 12.5649 1.6875 12.25V2.75C1.6875 2.43506 1.81261 2.13301 2.03531 1.91031C2.25801 1.68761 2.56006 1.5625 2.875 1.5625H17.125ZM2.875 0.375C2.24511 0.375 1.64102 0.625222 1.19562 1.07062C0.750223 1.51602 0.5 2.12011 0.5 2.75L0.5 12.25C0.5 12.8799 0.750223 13.484 1.19562 13.9294C1.64102 14.3748 2.24511 14.625 2.875 14.625H17.125C17.7549 14.625 18.359 14.3748 18.8044 13.9294C19.2498 13.484 19.5 12.8799 19.5 12.25V2.75C19.5 2.12011 19.2498 1.51602 18.8044 1.07062C18.359 0.625222 17.7549 0.375 17.125 0.375H2.875Z" fill="black"/>
<path d="M2.875 4.53125C2.875 4.37378 2.93756 4.22276 3.04891 4.11141C3.16026 4.00006 3.31128 3.9375 3.46875 3.9375H5.84375C6.00122 3.9375 6.15224 4.00006 6.26359 4.11141C6.37494 4.22276 6.4375 4.37378 6.4375 4.53125V5.71875C6.4375 5.87622 6.37494 6.02724 6.26359 6.13859C6.15224 6.24994 6.00122 6.3125 5.84375 6.3125H3.46875C3.31128 6.3125 3.16026 6.24994 3.04891 6.13859C2.93756 6.02724 2.875 5.87622 2.875 5.71875V4.53125ZM2.875 8.09375C2.875 7.93628 2.93756 7.78525 3.04891 7.6739C3.16026 7.56256 3.31128 7.5 3.46875 7.5H9.40625C9.56372 7.5 9.71475 7.56256 9.82609 7.6739C9.93744 7.78525 10 7.93628 10 8.09375C10 8.25122 9.93744 8.40225 9.82609 8.5136C9.71475 8.62494 9.56372 8.6875 9.40625 8.6875H3.46875C3.31128 8.6875 3.16026 8.62494 3.04891 8.5136C2.93756 8.40225 2.875 8.25122 2.875 8.09375ZM2.875 10.4688C2.875 10.3113 2.93756 10.1603 3.04891 10.0489C3.16026 9.93756 3.31128 9.875 3.46875 9.875H4.65625C4.81372 9.875 4.96474 9.93756 5.07609 10.0489C5.18744 10.1603 5.25 10.3113 5.25 10.4688C5.25 10.6262 5.18744 10.7772 5.07609 10.8886C4.96474 10.9999 4.81372 11.0625 4.65625 11.0625H3.46875C3.31128 11.0625 3.16026 10.9999 3.04891 10.8886C2.93756 10.7772 2.875 10.6262 2.875 10.4688ZM6.4375 10.4688C6.4375 10.3113 6.50006 10.1603 6.61141 10.0489C6.72276 9.93756 6.87378 9.875 7.03125 9.875H8.21875C8.37622 9.875 8.52725 9.93756 8.63859 10.0489C8.74994 10.1603 8.8125 10.3113 8.8125 10.4688C8.8125 10.6262 8.74994 10.7772 8.63859 10.8886C8.52725 10.9999 8.37622 11.0625 8.21875 11.0625H7.03125C6.87378 11.0625 6.72276 10.9999 6.61141 10.8886C6.50006 10.7772 6.4375 10.6262 6.4375 10.4688ZM10 10.4688C10 10.3113 10.0626 10.1603 10.1739 10.0489C10.2853 9.93756 10.4363 9.875 10.5938 9.875H11.7812C11.9387 9.875 12.0897 9.93756 12.2011 10.0489C12.3124 10.1603 12.375 10.3113 12.375 10.4688C12.375 10.6262 12.3124 10.7772 12.2011 10.8886C12.0897 10.9999 11.9387 11.0625 11.7812 11.0625H10.5938C10.4363 11.0625 10.2853 10.9999 10.1739 10.8886C10.0626 10.7772 10 10.6262 10 10.4688ZM13.5625 10.4688C13.5625 10.3113 13.6251 10.1603 13.7364 10.0489C13.8478 9.93756 13.9988 9.875 14.1562 9.875H15.3438C15.5012 9.875 15.6522 9.93756 15.7636 10.0489C15.8749 10.1603 15.9375 10.3113 15.9375 10.4688C15.9375 10.6262 15.8749 10.7772 15.7636 10.8886C15.6522 10.9999 15.5012 11.0625 15.3438 11.0625H14.1562C13.9988 11.0625 13.8478 10.9999 13.7364 10.8886C13.6251 10.7772 13.5625 10.6262 13.5625 10.4688Z" fill="black"/>
</svg>
