<svg width="18" height="20" viewBox="0 0 18 20" fill="none" xmlns="http://www.w3.org/2000/svg">
<path d="M2.5 18.5C1.67157 18.5 1 17.8284 1 17V7.25C1 6.77786 1.22229 6.33328 1.6 6.05L8.1 1.175C8.63333 0.775 9.36667 0.775 9.9 1.175L16.4 6.05C16.7777 6.33328 17 6.77786 17 7.25V17C17 17.8284 16.3284 18.5 15.5 18.5H12.5C11.6716 18.5 11 17.8284 11 17V13C11 12.1716 10.3284 11.5 9.5 11.5H8.5C7.67157 11.5 7 12.1716 7 13V17C7 17.8284 6.32843 18.5 5.5 18.5H2.5Z" stroke="white" stroke-width="1.5"/>
</svg>
