<svg width="22" height="15" viewBox="0 0 22 15" fill="none" xmlns="http://www.w3.org/2000/svg">
<path d="M21.0035 5.94987L15.2045 3.86584L12.7805 0.822666C12.5697 0.564996 12.3042 0.357482 12.0033 0.215187C11.7023 0.072892 11.3734 -0.000614221 11.0405 3.86584e-06H5.0435C4.67673 -0.000119261 4.31549 0.0894725 3.99129 0.260967C3.66709 0.432462 3.38977 0.680653 3.1835 0.983899L1.1495 3.97083C0.725866 4.59247 0.499516 5.32737 0.500001 6.07961V11.9987C0.500001 12.1976 0.579018 12.3884 0.719671 12.529C0.860323 12.6696 1.05109 12.7486 1.25 12.7486H2.8565C3.01965 13.3923 3.39277 13.9631 3.91683 14.3709C4.44089 14.7786 5.08597 15 5.75 15C6.41403 15 7.05911 14.7786 7.58317 14.3709C8.10723 13.9631 8.48035 13.3923 8.6435 12.7486H13.3565C13.5197 13.3923 13.8928 13.9631 14.4168 14.3709C14.9409 14.7786 15.586 15 16.25 15C16.914 15 17.5591 14.7786 18.0832 14.3709C18.6072 13.9631 18.9803 13.3923 19.1435 12.7486H20.75C20.9489 12.7486 21.1397 12.6696 21.2803 12.529C21.421 12.3884 21.5 12.1976 21.5 11.9987V6.65554C21.5 6.50112 21.4523 6.35046 21.3634 6.22416C21.2745 6.09786 21.1489 6.00207 21.0035 5.94987ZM5.75 13.4986C5.45333 13.4986 5.16332 13.4106 4.91665 13.2458C4.66997 13.081 4.47771 12.8468 4.36418 12.5727C4.25065 12.2986 4.22094 11.9971 4.27882 11.7061C4.3367 11.4152 4.47956 11.1479 4.68934 10.9382C4.89912 10.7284 5.16639 10.5856 5.45737 10.5277C5.74834 10.4698 6.04994 10.4995 6.32403 10.6131C6.59811 10.7266 6.83238 10.9188 6.9972 11.1655C7.16203 11.4121 7.25 11.7021 7.25 11.9987C7.2494 12.3963 7.09118 12.7775 6.81 13.0586C6.52883 13.3398 6.14764 13.498 5.75 13.4986ZM16.25 13.4986C15.9533 13.4986 15.6633 13.4106 15.4166 13.2458C15.17 13.081 14.9777 12.8468 14.8642 12.5727C14.7506 12.2986 14.7209 11.9971 14.7788 11.7061C14.8367 11.4152 14.9796 11.1479 15.1893 10.9382C15.3991 10.7284 15.6664 10.5856 15.9574 10.5277C16.2483 10.4698 16.5499 10.4995 16.824 10.6131C17.0981 10.7266 17.3324 10.9188 17.4972 11.1655C17.662 11.4121 17.75 11.7021 17.75 11.9987C17.7496 12.3964 17.5914 12.7776 17.3102 13.0588C17.029 13.34 16.6477 13.4982 16.25 13.4986ZM20 11.2488H19.1435C18.9803 10.6052 18.6072 10.0344 18.0832 9.6266C17.5591 9.21884 16.914 8.99745 16.25 8.99745C15.586 8.99745 14.9409 9.21884 14.4168 9.6266C13.8928 10.0344 13.5197 10.6052 13.3565 11.2488H8.6435C8.48035 10.6052 8.10723 10.0344 7.58317 9.6266C7.05911 9.21884 6.41403 8.99745 5.75 8.99745C5.08597 8.99745 4.44089 9.21884 3.91683 9.6266C3.39277 10.0344 3.01965 10.6052 2.8565 11.2488H2V6.07961C1.99992 5.62807 2.13582 5.18696 2.39 4.81374L4.42325 1.82831C4.492 1.72713 4.58447 1.6443 4.69258 1.58705C4.80069 1.5298 4.92116 1.49986 5.0435 1.49984H11.0405C11.1496 1.49941 11.2575 1.52297 11.3565 1.56884C11.4556 1.61472 11.5433 1.68179 11.6135 1.76532L14.1635 4.96672C14.2502 5.07557 14.3655 5.15814 14.4965 5.2052L20 7.18274V11.2488Z" fill="black"/>
</svg>
