<svg width="16" height="5" viewBox="0 0 16 5" fill="none" xmlns="http://www.w3.org/2000/svg">
<path d="M10.0741 2.5C10.0741 2.89556 9.95243 3.28224 9.72453 3.61114C9.49663 3.94004 9.1727 4.19638 8.79371 4.34776C8.41473 4.49913 7.9977 4.53874 7.59537 4.46157C7.19304 4.3844 6.82347 4.19392 6.53341 3.91421C6.24334 3.63451 6.04581 3.27814 5.96578 2.89018C5.88575 2.50222 5.92682 2.10009 6.08381 1.73463C6.24079 1.36918 6.50663 1.05682 6.84771 0.837061C7.18879 0.617298 7.58979 0.5 8 0.5C8.54948 0.501882 9.07589 0.713201 9.46444 1.08787C9.85298 1.46253 10.0721 1.97015 10.0741 2.5ZM2.07407 0.5C1.66386 0.5 1.26286 0.617298 0.921781 0.837061C0.580702 1.05682 0.314862 1.36918 0.15788 1.73463C0.000898661 2.10009 -0.0401749 2.50222 0.0398537 2.89018C0.119882 3.27814 0.317419 3.63451 0.607483 3.91421C0.897548 4.19392 1.26711 4.3844 1.66944 4.46157C2.07177 4.53874 2.4888 4.49913 2.86779 4.34776C3.24678 4.19638 3.5707 3.94004 3.7986 3.61114C4.02651 3.28224 4.14815 2.89556 4.14815 2.5C4.1462 1.97015 3.92705 1.46253 3.53851 1.08787C3.14997 0.713201 2.62355 0.501882 2.07407 0.5ZM13.9259 0.5C13.5157 0.5 13.1147 0.617298 12.7736 0.837061C12.4326 1.05682 12.1667 1.36918 12.0097 1.73463C11.8527 2.10009 11.8117 2.50222 11.8917 2.89018C11.9717 3.27814 12.1693 3.63451 12.4593 3.91421C12.7494 4.19392 13.119 4.3844 13.5213 4.46157C13.9236 4.53874 14.3407 4.49913 14.7196 4.34776C15.0986 4.19638 15.4226 3.94004 15.6505 3.61114C15.8784 3.28224 16 2.89556 16 2.5C15.998 1.97015 15.7789 1.46253 15.3904 1.08787C15.0018 0.713201 14.4754 0.501882 13.9259 0.5Z" fill="black"/>
</svg>
